{"title":"Hail, Caesar! 2016 720p HC HDRIP x264 AC3 TiTAN","uid":14169516,"size":2211011200,"categoryP":"video","categoryS":"hd___movies","magnet":"?xt=urn:btih:4c63db6bdeb7476aaa4576e73fbfe63a07a0a09e&amp;dn=Hail%2C+Caesar%21+2016+720p+HC+HDRIP+x264+AC3+TiTAN&amp;tr=udp%3A%2F%2Ftracker.leechers-paradise.org%3A6969&amp;tr=udp%3A%2F%2Fzer0day.ch%3A1337&amp;tr=udp%3A%2F%2Fopen.demonii.com%3A1337&amp;tr=udp%3A%2F%2Ftracker.coppersurfer.tk%3A6969&amp;tr=udp%3A%2F%2Fexodus.desync.com%3A6969","seeders":2,"leechers":3,"uploader":"makintos13","files":2,"time":1459737929,"description":"Hail, Caesar! 2016 720p HC HDRIP x264 AC3 TiTAN\r\n\r\nscreens:\r\n \nhttp://imgmak.com/Ksx\r\n \nhttp://imgmak.com/Ksz\r\n \nhttp://imgmak.com/Ks7\r\n \nhttp://imgmak.com/Ksk\r\n\r\n::::::::::::\r\n \nhttp://www.imdb.com/title/tt0475290/\r\n\r\nSource: 1080p M-4BA\r\n\r\nWent ahead and cropped off the first line of subs, as it did not affect the watch-ability of the movie.. enjoy..\r\n\r\nGeneral\r\n\r\nFormat                                   : Matroska\r\nFormat version                           : Version 2\r\nFile size                                : 2.06 GiB\r\nDuration                                 : 1h 41mn\r\nOverall bit rate mode                    : Variable\r\nOverall bit rate                         : 2 898 Kbps\r\n\r\nVideo\r\nID                                       : 1\r\nFormat                                   : AVC\r\nFormat/Info                              : Advanced Video Codec\r\nFormat profile                           :   \r\nFormat settings, CABAC                   : Yes\r\nFormat settings, ReFrames                : 3 frames\r\nCodec ID                                 : V_MPEG4/ISO/AVC\r\nDuration                                 : 1h 41mn\r\nBit rate mode                            : Variable\r\nBit rate                                 : 2 616 Kbps\r\nMaximum bit rate                         : 40.0 Mbps\r\nWidth                                    : 1 280 pixels\r\nHeight                                   : 624 pixels\r\nDisplay aspect ratio                     : 2.051\r\nFrame rate mode                          : Constant\r\nFrame rate                               : 25.000 fps\r\nColor space                              : YUV\r\nChroma subsampling                       : 4:2:0\r\nBit depth                                : 8 bits\r\nScan type                                : Progressive\r\nBits/(Pixel*Frame)                       : 0.131\r\nStream size                              : 1.86 GiB (90%)\r\nDefault                                  : Yes\r\nForced                                   : No\r\nColor primaries                          : BT.709\r\nTransfer characteristics                 : BT.709\r\nMatrix coefficients                      : BT.709\r\n\r\nAudio\r\nID                                       : 2\r\nFormat                                   : AC-3\r\nFormat/Info                              : Audio Coding 3\r\nMode extension                           : CM (complete main)\r\nFormat settings, Endianness              : Big\r\nCodec ID                                 : A_AC3\r\nDuration                                 : 1h 41mn\r\nBit rate mode                            : Constant\r\nBit rate                                 : 224 Kbps\r\nChannel(s)                               : 2 channels\r\nChannel positions                        : Front: L R\r\nSampling rate                            : 44.1 KHz\r\nBit depth                                : 16 bits\r\nCompression mode                         : Lossy\r\nStream size                              : 163 MiB (8%)\r\nLanguage                                 : English\r\nDefault                                  : Yes\r\nForced                                   : No","torrent":{"xt":"urn:btih:4c63db6bdeb7476aaa4576e73fbfe63a07a0a09e","amp;dn":"Hail%2C+Caesar%21+2016+720p+HC+HDRIP+x264+AC3+TiTAN","amp;tr":["udp%3A%2F%2Ftracker.leechers-paradise.org%3A6969","udp%3A%2F%2Fzer0day.ch%3A1337","udp%3A%2F%2Fopen.demonii.com%3A1337","udp%3A%2F%2Ftracker.coppersurfer.tk%3A6969","udp%3A%2F%2Fexodus.desync.com%3A6969"],"infoHash":"4c63db6bdeb7476aaa4576e73fbfe63a07a0a09e","infoHashBuffer":{"type":"Buffer","data":[76,99,219,107,222,183,71,106,170,69,118,231,63,191,230,58,7,160,160,158]},"announce":[],"urlList":[]}}